<?xml version="1.0" standalone="no"?>
<!DOCTYPE svg PUBLIC "-//W3C//DTD SVG 20010904//EN"
 "http://www.w3.org/TR/2001/REC-SVG-20010904/DTD/svg10.dtd">
<svg version="1.0" xmlns="http://www.w3.org/2000/svg"
 width="512.000000pt" height="512.000000pt" viewBox="0 0 512.000000 512.000000"
 preserveAspectRatio="xMidYMid meet">
<metadata>
Created by potrace 1.16, written by Peter Selinger 2001-2019
</metadata>
<g transform="translate(0.000000,512.000000) scale(0.100000,-0.100000)"
fill="#000000" stroke="none">
<path d="M1672 4691 c-64 -22 -99 -53 -112 -100 -20 -72 0 -91 96 -91 55 0
156 -28 214 -59 l35 -19 -40 -7 c-78 -13 -211 -45 -265 -64 -69 -24 -161 -67
-169 -78 -3 -5 -32 -25 -65 -44 -32 -19 -72 -42 -90 -53 -63 -37 -170 -132
-235 -208 -65 -77 -75 -92 -148 -218 -20 -36 -42 -70 -49 -77 -32 -33 -124
-313 -124 -380 0 -14 -19 -24 -74 -41 -137 -44 -279 -158 -330 -267 -56 -117
-52 -161 17 -222 41 -36 204 -102 327 -132 122 -31 124 -32 148 -98 12 -32 28
-67 37 -78 8 -11 32 -48 53 -82 20 -35 57 -91 82 -125 59 -80 235 -257 282
-283 20 -11 72 -41 115 -67 92 -55 180 -93 283 -124 41 -12 77 -28 81 -35 4
-8 17 -48 29 -89 54 -180 172 -383 300 -511 94 -95 217 -190 324 -251 39 -22
82 -46 96 -54 14 -8 37 -19 53 -24 21 -7 27 -16 27 -39 0 -16 -4 -33 -10 -36
-5 -3 -10 -37 -10 -75 l0 -69 -164 -3 c-186 -3 -201 -9 -243 -84 -28 -51 -28
-84 1 -136 33 -59 72 -80 163 -86 l74 -5 -19 -21 c-46 -51 -55 -117 -24 -175
38 -71 128 -90 223 -47 70 31 371 194 386 209 39 40 72 157 44 157 -5 0 -13
10 -17 23 -3 12 -29 43 -56 69 -49 48 -100 140 -113 206 l-7 34 69 -9 c127
-15 387 -8 520 16 67 12 134 26 149 31 l27 11 -6 -53 c-4 -29 -7 -72 -7 -95
l0 -43 -158 0 c-185 0 -213 -9 -249 -80 -28 -54 -29 -91 -3 -145 27 -56 68
-77 157 -83 l73 -5 -25 -29 c-48 -57 -42 -148 14 -202 23 -22 41 -29 89 -33
60 -6 61 -5 208 73 82 44 180 95 219 114 45 23 77 47 92 69 41 60 25 165 -30
207 -47 35 -110 127 -129 187 -30 98 -22 211 16 223 47 14 211 119 310 198 82
65 115 86 148 91 134 22 366 179 486 330 127 160 242 430 293 685 23 119 32
328 16 401 -10 46 -41 79 -75 79 -25 0 -318 -91 -353 -110 -43 -23 -191 -44
-304 -43 -142 1 -190 11 -299 62 -175 82 -294 179 -404 326 -75 102 -241 435
-292 587 -36 108 -81 202 -160 338 -75 126 -262 301 -423 396 -34 20 -64 40
-67 44 -14 21 -276 120 -319 120 -9 0 -22 4 -30 9 -11 7 1 17 45 39 80 40 157
62 221 62 78 0 93 11 93 67 0 39 -5 50 -34 77 -42 40 -139 71 -194 63 -72 -12
-231 -69 -289 -103 l-56 -35 -91 46 c-89 45 -246 95 -296 95 -14 -1 -49 -9
-78 -19z m222 -1301 c20 -14 49 -43 64 -64 24 -35 27 -49 27 -117 0 -71 -3
-81 -31 -120 -43 -60 -101 -89 -176 -89 -124 0 -211 87 -211 210 0 88 46 160
123 195 54 24 157 16 204 -15z"/>
</g>
</svg>
